<svg width="56" height="56" viewBox="0 0 56 56" fill="none" xmlns="http://www.w3.org/2000/svg">
<g filter="url(#filter0_i_933_7138)">
<rect width="56" height="56" rx="28" fill="white" fill-opacity="0.15"/>
</g>
<rect x="8" y="8" width="40" height="40" rx="20" fill="white"/>
<path d="M22 37V19H29C30.6667 19 32.0833 19.5833 33.25 20.75C34.4167 21.9167 35 23.3333 35 25C35 26.6667 34.4167 28.0833 33.25 29.25C32.0833 30.4167 30.6667 31 29 31H26V37H22ZM26 27H29.2C29.75 27 30.221 26.804 30.613 26.412C31.0043 26.0207 31.2 25.55 31.2 25C31.2 24.45 31.0043 23.979 30.613 23.587C30.221 23.1957 29.75 23 29.2 23H26V27Z" fill="black"/>
<defs>
<filter id="filter0_i_933_7138" x="0" y="0" width="56" height="56" filterUnits="userSpaceOnUse" color-interpolation-filters="sRGB">
<feFlood flood-opacity="0" result="BackgroundImageFix"/>
<feBlend mode="normal" in="SourceGraphic" in2="BackgroundImageFix" result="shape"/>
<feColorMatrix in="SourceAlpha" type="matrix" values="0 0 0 0 0 0 0 0 0 0 0 0 0 0 0 0 0 0 127 0" result="hardAlpha"/>
<feOffset/>
<feGaussianBlur stdDeviation="5"/>
<feComposite in2="hardAlpha" operator="arithmetic" k2="-1" k3="1"/>
<feColorMatrix type="matrix" values="0 0 0 0 0 0 0 0 0 0 0 0 0 0 0 0 0 0 0.1 0"/>
<feBlend mode="normal" in2="shape" result="effect1_innerShadow_933_7138"/>
</filter>
</defs>
</svg>
