<svg width="24" height="31" viewBox="0 0 24 31" fill="none" xmlns="http://www.w3.org/2000/svg">
<path d="M3.49984 30.1667C2.72067 30.1667 2.05389 29.8896 1.4995 29.3352C0.94417 28.7798 0.666504 28.1126 0.666504 27.3334V13.1667C0.666504 12.3876 0.94417 11.7203 1.4995 11.165C2.05389 10.6106 2.72067 10.3334 3.49984 10.3334H4.9165V7.50008C4.9165 5.54036 5.60737 3.86964 6.98909 2.48791C8.36987 1.10714 10.0401 0.416748 11.9998 0.416748C13.9596 0.416748 15.6303 1.10714 17.012 2.48791C18.3928 3.86964 19.0832 5.54036 19.0832 7.50008V10.3334H20.4998C21.279 10.3334 21.9463 10.6106 22.5016 11.165C23.056 11.7203 23.3332 12.3876 23.3332 13.1667V27.3334C23.3332 28.1126 23.056 28.7798 22.5016 29.3352C21.9463 29.8896 21.279 30.1667 20.4998 30.1667H3.49984ZM11.9998 23.0834C12.779 23.0834 13.4463 22.8062 14.0016 22.2518C14.556 21.6965 14.8332 21.0292 14.8332 20.2501C14.8332 19.4709 14.556 18.8037 14.0016 18.2483C13.4463 17.6939 12.779 17.4167 11.9998 17.4167C11.2207 17.4167 10.5539 17.6939 9.99951 18.2483C9.44417 18.8037 9.1665 19.4709 9.1665 20.2501C9.1665 21.0292 9.44417 21.6965 9.99951 22.2518C10.5539 22.8062 11.2207 23.0834 11.9998 23.0834ZM7.74984 10.3334H16.2498V7.50008C16.2498 6.31953 15.8366 5.31605 15.0103 4.48966C14.1839 3.66328 13.1804 3.25008 11.9998 3.25008C10.8193 3.25008 9.81581 3.66328 8.98942 4.48966C8.16303 5.31605 7.74984 6.31953 7.74984 7.50008V10.3334Z" fill="#AC3434" fill-opacity="0.5"/>
</svg>
