<svg width="21" height="21" viewBox="0 0 21 21" fill="none" xmlns="http://www.w3.org/2000/svg">
<path d="M8.75 7V12.25L12.8625 14.7875L13.5625 13.7375L10.0625 11.6375V7H8.75Z" fill="white" fill-opacity="0.65"/>
<path d="M15.68 10.5C15.8119 11.3697 15.7537 12.2576 15.5095 13.1027C15.2653 13.9478 14.8409 14.7299 14.2654 15.3952C13.6899 16.0604 12.9771 16.5931 12.176 16.9565C11.3749 17.3198 10.5046 17.5053 9.625 17.5C6.2125 17.5 3.5 14.7875 3.5 11.375C3.5 7.9625 6.2125 5.25 9.625 5.25C10.2375 5.25 10.8237 5.3375 11.375 5.50375V3.70125C10.815 3.57 10.2288 3.5 9.625 3.5C5.25 3.5 1.75 7 1.75 11.375C1.75 15.75 5.25 19.25 9.625 19.25C10.7342 19.2546 11.8318 19.0239 12.8453 18.573C13.8587 18.1221 14.765 17.4614 15.5043 16.6345C16.2436 15.8075 16.7991 14.8332 17.1341 13.7757C17.469 12.7183 17.5758 11.6018 17.4475 10.5H15.68Z" fill="white" fill-opacity="0.65"/>
<path d="M17.5 4.375V1.75H15.75V4.375H13.125V6.125H15.75V8.75H17.5V6.125H20.125V4.375H17.5Z" fill="white" fill-opacity="0.65"/>
</svg>
