<svg width="56" height="56" viewBox="0 0 56 56" fill="none" xmlns="http://www.w3.org/2000/svg">
<g filter="url(#filter0_i_933_7153)">
<rect width="56" height="56" rx="28" fill="#FFC93E" fill-opacity="0.15"/>
</g>
<rect x="8" y="8" width="40" height="40" rx="20" fill="#FFC93E"/>
<g clip-path="url(#clip0_933_7153)">
<path d="M38 26V33C38 33.7956 37.6839 34.5587 37.1213 35.1213C36.5587 35.6839 35.7956 36 35 36H21C20.2044 36 19.4413 35.6839 18.8787 35.1213C18.3161 34.5587 18 33.7956 18 33V26H38ZM34 30H31C30.7348 30 30.4804 30.1054 30.2929 30.2929C30.1054 30.4804 30 30.7348 30 31C30 31.2652 30.1054 31.5196 30.2929 31.7071C30.4804 31.8946 30.7348 32 31 32H34C34.2652 32 34.5196 31.8946 34.7071 31.7071C34.8946 31.5196 35 31.2652 35 31C35 30.7348 34.8946 30.4804 34.7071 30.2929C34.5196 30.1054 34.2652 30 34 30ZM35 20C35.7956 20 36.5587 20.3161 37.1213 20.8787C37.6839 21.4413 38 22.2044 38 23V24H18V23C18 22.2044 18.3161 21.4413 18.8787 20.8787C19.4413 20.3161 20.2044 20 21 20H35Z" fill="#301B08"/>
</g>
<defs>
<filter id="filter0_i_933_7153" x="0" y="0" width="56" height="56" filterUnits="userSpaceOnUse" color-interpolation-filters="sRGB">
<feFlood flood-opacity="0" result="BackgroundImageFix"/>
<feBlend mode="normal" in="SourceGraphic" in2="BackgroundImageFix" result="shape"/>
<feColorMatrix in="SourceAlpha" type="matrix" values="0 0 0 0 0 0 0 0 0 0 0 0 0 0 0 0 0 0 127 0" result="hardAlpha"/>
<feOffset/>
<feGaussianBlur stdDeviation="5"/>
<feComposite in2="hardAlpha" operator="arithmetic" k2="-1" k3="1"/>
<feColorMatrix type="matrix" values="0 0 0 0 0 0 0 0 0 0 0 0 0 0 0 0 0 0 0.1 0"/>
<feBlend mode="normal" in2="shape" result="effect1_innerShadow_933_7153"/>
</filter>
<clipPath id="clip0_933_7153">
<rect width="24" height="24" fill="white" transform="translate(16 16)"/>
</clipPath>
</defs>
</svg>
